<?xml version="1.0" standalone="no"?><!DOCTYPE svg PUBLIC "-//W3C//DTD SVG 1.1//EN" "http://www.w3.org/Graphics/SVG/1.1/DTD/svg11.dtd"><svg t="1705561922417" class="icon" viewBox="0 0 1024 1024" version="1.1" xmlns="http://www.w3.org/2000/svg" p-id="8496" width="32" height="32" xmlns:xlink="http://www.w3.org/1999/xlink"><path d="M957.493895 499.388632a33.953684 33.953684 0 0 1 6.305684 18.917052c0 8.407579-2.155789 12.665263-6.305684 16.869053l-439.996632 442.098526a33.953684 33.953684 0 0 1-18.970947 6.305684c-8.407579 0-12.611368-2.155789-16.869053-8.407579L39.612632 535.174737c-4.203789-4.203789-6.305684-8.461474-6.305685-16.869053a33.953684 33.953684 0 0 1 6.305685-18.917052l42.145684-42.145685c4.203789-4.203789 8.407579-6.305684 16.815158-6.305684a33.953684 33.953684 0 0 1 18.970947 6.305684l326.278737 326.332632V65.751579c0-6.305684 2.155789-12.665263 6.359579-16.869053A26.677895 26.677895 0 0 1 469.045895 40.421053h58.960842c6.305684 0 12.611368 4.203789 16.815158 8.407579 4.257684 4.203789 8.461474 10.563368 8.461473 16.869052v717.877895l326.278737-326.332632c4.203789-4.203789 10.563368-6.305684 18.970948-6.305684 6.305684 0 12.611368 2.155789 16.815158 6.305684l42.145684 42.145685z" fill="#d4237a" p-id="8497"></path></svg>